<?xml version="1.0" standalone="no"?>
<!DOCTYPE svg PUBLIC "-//W3C//DTD SVG 20010904//EN"
 "http://www.w3.org/TR/2001/REC-SVG-20010904/DTD/svg10.dtd">
<svg version="1.0" xmlns="http://www.w3.org/2000/svg"
 width="626.000000pt" height="626.000000pt" viewBox="0 0 626.000000 626.000000"
 preserveAspectRatio="xMidYMid meet">

<g transform="translate(0.000000,626.000000) scale(0.100000,-0.100000)"
fill="#000000" stroke="none">
<path d="M2865 5974 c-16 -2 -82 -11 -145 -20 -606 -81 -1190 -378 -1630 -830
-145 -149 -232 -255 -334 -409 -262 -395 -412 -811 -466 -1290 -15 -135 -12
-481 5 -629 127 -1089 866 -2008 1903 -2367 518 -179 1103 -204 1632 -69 886
226 1599 845 1946 1691 254 620 280 1317 72 1958 -280 865 -955 1545 -1818
1831 -304 101 -498 131 -860 135 -151 2 -288 1 -305 -1z m-767 -1379 c103 -31
198 -132 228 -242 34 -126 -3 -252 -101 -342 -156 -142 -394 -117 -509 53 -63
92 -80 195 -50 296 21 70 52 117 109 168 87 76 207 101 323 67z m1930 -950
c75 -18 145 -52 229 -111 116 -83 206 -216 243 -359 19 -74 20 -111 20 -762
l0 -683 -285 0 -284 0 -3 568 -3 567 -28 59 c-40 86 -86 138 -159 177 -61 33
-67 34 -173 34 -104 0 -114 -2 -175 -32 -71 -35 -139 -96 -175 -158 -53 -89
-55 -117 -55 -687 l0 -528 -285 0 -285 0 0 955 0 955 285 0 285 0 0 -126 0
-126 52 57 c86 95 192 161 313 196 80 24 389 26 483 4z m-1748 -960 l0 -955
-285 0 -285 0 0 955 0 955 285 0 285 0 0 -955z"/>
</g>
</svg>
